<?xml version="1.0" standalone="no"?>
<!DOCTYPE svg PUBLIC "-//W3C//DTD SVG 20010904//EN"
 "http://www.w3.org/TR/2001/REC-SVG-20010904/DTD/svg10.dtd">
<svg version="1.0" xmlns="http://www.w3.org/2000/svg"
 width="512.000000pt" height="512.000000pt" viewBox="0 0 512.000000 512.000000"
 preserveAspectRatio="xMidYMid meet">
<metadata>
Created by potrace 1.11, written by Peter Selinger 2001-2013
</metadata>
<g transform="translate(0.000000,512.000000) scale(0.100000,-0.100000)"
fill="#000000" stroke="none">
<path d="M1920 4108 l0 -588 320 -320 320 -320 320 320 320 320 0 588 0 587
-640 0 -640 0 0 -587z"/>
<path d="M429 3193 c-3 -26 -4 -1241 0 -1255 3 -17 39 -18 587 -18 l584 0 320
320 320 320 -320 320 -320 320 -585 0 c-322 0 -585 -3 -586 -7z"/>
<path d="M3200 2880 l-320 -320 320 -320 320 -320 585 0 c461 0 585 3 586 13
0 6 1 293 2 637 l0 625 -586 3 -587 2 -320 -320z"/>
<path d="M2233 1914 l-313 -314 0 -587 0 -588 632 2 c348 1 636 2 641 2 4 1 7
264 7 586 l0 585 -315 315 c-173 173 -321 315 -327 314 -7 0 -154 -142 -325
-315z"/>
</g>
</svg>
