<?xml version="1.0" encoding="utf-8"?>
<!-- Generator: Adobe Illustrator 24.0.3, SVG Export Plug-In . SVG Version: 6.00 Build 0)  -->
<svg version="1.1" id="Слой_1" xmlns="http://www.w3.org/2000/svg" xmlns:xlink="http://www.w3.org/1999/xlink" x="0px" y="0px"
	 viewBox="0 0 298.2 287.3" style="enable-background:new 0 0 298.2 287.3;" xml:space="preserve">
<g>
	<path d="M297.4,128C291.5,70.8,249.9,21.2,194.5,5.8C185.2,3.2,175.5,1.9,166,0c-7.7,0-15.3,0-23,0c-1.1,0.3-2.1,0.7-3.2,0.8
		c-42.8,4.5-80,27.2-103.4,61.1l3.4,0.2c25.6-35.9,67.6-59.3,115-59.2c77.5,0.1,140.6,63.4,140.5,141
		c-0.1,77.9-63.5,140.8-141.8,140.6c-45.6-0.1-86.4-22.6-112-57l-3.5,0.2c18.5,25.6,45.3,45.2,76.6,53.8c9.3,2.6,18.9,3.9,28.4,5.8
		c7.7,0,15.3,0,23,0c1.1-0.3,2.1-0.7,3.2-0.8c61.6-6.4,111.5-50.6,125.4-111.3c1.5-6.6,2.4-13.4,3.6-20.1c0-7.7,0-15.3,0-23
		C297.9,130.8,297.5,129.4,297.4,128z"/>
	<path d="M27.6,94.3v-4.8h-3c-0.7,1.6-1.3,3.2-1.9,4.8H27.6z"/>
	<path d="M29.5,80.1V79c-0.2,0.4-0.4,0.7-0.5,1.1H29.5z"/>
	<path d="M12.7,89.5v-9.4h13c0.8-1.6,1.6-3.2,2.5-4.8H7v30.8h5.7V94.3h7c0.6-1.6,1.2-3.2,1.9-4.8H12.7z"/>
	<path d="M29,80.1c0.2-0.4,0.4-0.7,0.5-1.1v-3.7h-1.3c-0.9,1.6-1.7,3.2-2.5,4.8H29z"/>
	<path d="M24.6,89.5h-3c-0.6,1.6-1.3,3.2-1.9,4.8h3C23.3,92.7,24,91.1,24.6,89.5z"/>
	<path d="M54,97.2h7c0.4,0,0.8,0,1.2,0l6.3,9h6.2L67.5,96c4.2-1.6,6.6-5.1,6.6-9.7c0-6.8-5-11-13.1-11H48.3v30.8H54V97.2z M54,80.2
		h6.7c5,0,7.6,2.2,7.6,6.1s-2.6,6.2-7.6,6.2H54V80.2z"/>
	<path d="M108,106.6c9.5,0,16.6-6.7,16.6-15.8s-7-15.8-16.6-15.8c-9.5,0-16.6,6.7-16.6,15.8S98.5,106.6,108,106.6z M108,79.9
		c6.2,0,10.8,4.5,10.8,10.8s-4.6,10.8-10.8,10.8c-6.2,0-10.8-4.5-10.8-10.8S101.8,79.9,108,79.9z"/>
	<polygon points="149.5,85.3 166.5,106.1 171.2,106.1 171.2,75.3 165.6,75.3 165.6,96.2 148.6,75.3 143.9,75.3 143.9,106.1 
		149.5,106.1 	"/>
	<rect x="208.1" y="75.3" width="6.8" height="4.8"/>
	<polygon points="188.7,75.3 188.7,80.2 199,80.2 199,106.1 204.7,106.1 204.7,80.2 208.1,80.2 208.1,75.3 	"/>
	<path d="M21.4,132.7c6.2,0,10.8,4.5,10.8,10.8s-4.6,10.8-10.8,10.8c-2.9,0-5.5-1-7.4-2.8c0.1,2.2,0.3,4.3,0.5,6.5
		c2.1,0.8,4.4,1.3,6.9,1.3c9.5,0,16.6-6.7,16.6-15.8s-7-15.8-16.6-15.8c-2.5,0-4.8,0.5-6.9,1.3c-0.2,2.1-0.4,4.3-0.5,6.5
		C15.9,133.7,18.5,132.7,21.4,132.7z"/>
	<path d="M10.9,146.2c-0.2-0.8-0.3-1.7-0.3-2.6s0.1-1.8,0.3-2.6c0-2.9,0-5.8,0-8.7c0.1-0.4,0.1-0.8,0.2-1.3
		c-3.9,2.8-6.3,7.3-6.3,12.6c0,5.3,2.4,9.8,6.3,12.6c-0.1-0.3-0.2-0.7-0.2-1C10.9,152.2,10.9,149.2,10.9,146.2z"/>
	<path d="M14,151.6c-1.5-1.4-2.6-3.3-3.1-5.4c0,3,0,6,0,9c0.1,0.3,0.2,0.7,0.2,1c1,0.7,2.2,1.4,3.4,1.9
		C14.3,155.9,14.1,153.8,14,151.6z"/>
	<path d="M10.9,140.9c0.5-2.2,1.6-4,3.1-5.4c0.1-2.2,0.3-4.3,0.5-6.5c-1.2,0.5-2.4,1.1-3.4,1.9c-0.1,0.4-0.1,0.8-0.2,1.3
		C10.9,135.1,10.9,138,10.9,140.9z"/>
	<polygon points="57.3,158.9 63,158.9 63,147.1 77.9,147.1 77.9,142.3 63,142.3 63,132.9 79.8,132.9 79.8,128.1 57.3,128.1 	"/>
	<path d="M21.7,207.2c-6.5,0-11.1-4.6-11.1-10.8c0-4.8,2.6-8.5,6.7-10c-0.5-1.6-1-3.3-1.4-5c-6.6,2-11,7.7-11,15
		c0,9.2,7,15.8,16.6,15.8c2.1,0,4.3-0.3,6.4-1c-0.8-1.5-1.6-3-2.3-4.6C24.2,207,23,207.2,21.7,207.2z"/>
	<path d="M21.8,185.5c3.3,0,6.1,1.1,8.5,3.5l3.6-3.5c-2.9-3.3-7.2-5-12.4-5c-1,0-1.9,0.1-2.8,0.2c0.5,1.6,0.9,3.3,1.4,4.9
		C20.7,185.5,21.2,185.5,21.8,185.5z"/>
	<path d="M33.5,196h-5.4v9.3c0.8,1.6,1.6,3.2,2.5,4.8c1.1-0.5,2.1-1.1,3-1.9V196z"/>
	<path d="M28.1,205.6c-0.8,0.5-1.7,0.8-2.6,1.1c0.8,1.5,1.5,3,2.3,4.6c1-0.3,1.9-0.7,2.8-1.1c-0.9-1.6-1.7-3.2-2.5-4.8V205.6z"/>
	<path d="M20.2,185.6c-0.5-1.6-1-3.3-1.4-4.9c-1,0.1-2,0.4-2.9,0.6c0.5,1.7,0.9,3.3,1.4,5C18.2,185.9,19.2,185.7,20.2,185.6z"/>
	<path d="M63.7,180.9l-13.9,30.8h5.9l3-7.1h15.4l3.1,7.1h6l-13.9-30.8H63.7z M60.7,200.1l5.8-13.5l5.8,13.5H60.7z"/>
	<polygon points="105.1,180.9 100.3,180.9 100.3,211.7 105.8,211.7 105.8,191.6 115.9,208.2 118.5,208.2 128.6,191.3 128.6,211.7 
		134.1,211.7 134,180.9 129.3,180.9 117.3,201.3 	"/>
	<polygon points="178.1,185.7 178.1,180.9 155.6,180.9 155.6,211.7 178.7,211.7 178.7,206.9 161.3,206.9 161.3,198.4 176.2,198.4 
		176.2,193.7 161.3,193.7 161.3,185.7 	"/>
	<path d="M220.2,203c0-6.9-6.9-8-12.2-9.3v5.3c3.6,0.9,6.6,1.7,6.6,4.4c0,2.2-2,3.9-6.6,4v4.8C216.3,212.1,220.2,207.9,220.2,203z"
		/>
	<path d="M208.7,185.2c2.7,0,5.7,0.8,8.5,2.4l1.8-4.4c-2.7-1.8-6.6-2.7-10.3-2.7c-0.2,0-0.4,0-0.7,0v4.7
		C208.3,185.2,208.5,185.2,208.7,185.2z"/>
	<path d="M202,189.4c0-2.2,1.8-4,6.1-4.2v-4.7c-8,0.2-11.7,4.3-11.7,9.2c0,6.8,6.5,8,11.7,9.3v-5.3C204.7,192.9,202,191.9,202,189.4
		z"/>
	<path d="M207.8,207.4c-3.8,0-7.7-1.4-10.2-3.4l-2,4.4c2.6,2.2,7.3,3.7,12.1,3.7c0.1,0,0.2,0,0.3,0v-4.8
		C208,207.4,207.9,207.4,207.8,207.4z"/>
</g>
</svg>
